<svg width="1021" height="1211" viewBox="0 0 1021 1211" fill="none" xmlns="http://www.w3.org/2000/svg">
<path fill-rule="evenodd" clip-rule="evenodd" d="M996.082 687.472C981.802 688.874 967.523 690.274 953.244 691.676C884.856 696.901 816.495 707.813 748.63 714.362C746.94 711.612 743.633 712.065 741.625 713.976C734.853 713.383 727.264 708.207 721.129 713.591C720.93 713.563 720.731 713.53 720.53 713.511C709.608 692.548 702.058 670.189 694.731 647.8C690.054 634.035 683.762 620.71 672.134 611.468C652.29 597.693 606.822 569.76 583.521 570.934C583.134 566.762 581.189 562.462 577.996 559.684C585.034 547.685 556.893 539.856 554.908 541.247C556.18 501.159 537.323 466.345 495.743 458.362C458.492 450.6 405.51 449.296 385.476 488.225C383.273 487.977 360.762 487.86 358.584 488.104C355.198 483.815 318.008 524.457 333.251 538.606C196.978 598.888 119.493 591.695 81.7752 761.164C76.6761 777.084 76.3047 794.505 70.9203 810.07C51.764 854.801 36.2263 902.432 32.3594 951.104C23.0199 953.497 21.9459 969.964 32.7638 972.346C36.8959 973.257 40.3514 974.501 43.3645 976.86C41.0091 1016.75 50.6558 1107.86 56.734 1107.58C69.1275 1147.02 124.409 1158.15 163.547 1144.29C156.8 1156.99 163.547 1164.97 163.547 1171.75C304.374 1177.08 458.353 1174.01 599.141 1181.32C617.15 1181.06 636.093 1185.74 653.856 1183.05C664.688 1180.45 664.706 1163.42 653.718 1161.31L701.731 1150.88C700.658 1150.48 721.522 1136.6 737.291 1110.67C751.969 1081.66 741.979 1046.64 748.63 1015.08C800.575 1010.83 853.378 1009.02 904.754 1000.22C911.759 1021.18 942.082 996.113 951.721 986.03C951.709 986.014 951.697 985.999 951.685 985.983C956.35 984.707 960.091 980.335 960.216 975.159C963.487 970.485 964.174 963.897 961.036 959.38C975.415 876.412 997.335 791.7 1005.26 707.952C1008.06 707.332 1010.7 706.104 1012.93 704.212L1012.75 704.031C1016.54 699.807 1017.28 692.516 1010.96 688.927C1005.87 686.029 1001.61 686.928 996.082 687.472Z" fill="#D08B5B"/>
<path fill-rule="evenodd" clip-rule="evenodd" d="M453 998L464 1005L554 1034L609 1041L654 1034V1111L663 1183C659 1190.33 621 1190.33 549 1183C503.102 1178.33 335.356 1176.06 297.164 1175.06L295 1175C250.12 1173.71 205.787 1173.71 162 1175V1148L287 1086L399 1023L453 998ZM389.229 481.932L397.495 488.104L379.448 517.754L467.361 588.865V645.664L495.193 671.988L511.102 645.664L533.519 615.852L549.45 567.528L544.026 535.692L554.934 534.664C554.987 536.84 554.978 539.036 554.908 541.247C556.893 539.856 585.034 547.685 577.996 559.684C581.189 562.462 583.134 566.762 583.521 570.934C606.822 569.76 652.29 597.693 672.134 611.468C683.762 620.71 690.054 634.035 694.731 647.8L695.832 651.158L696.969 654.605L698.114 658.05C704.443 676.985 711.276 695.749 720.53 713.511C720.731 713.53 720.93 713.563 721.129 713.591C727.264 708.207 734.853 713.383 741.625 713.976C743.587 712.11 746.787 711.634 748.51 714.175L748.63 714.362L664.259 730.983L608.598 926.227L560.126 886.881L534.108 890.75L465.399 915.531L385.486 936.289L203.055 986.584H179.824L44.639 953.939L32.4561 949.918C36.4792 901.658 51.9197 854.438 70.9204 810.07C76.3048 794.505 76.6762 777.084 81.7753 761.164C119.493 591.695 196.978 598.888 333.251 538.606C318.008 524.457 355.198 483.815 358.584 488.104L358.798 488.085L359.259 488.061L359.854 488.04C365.17 487.885 383.5 488.003 385.476 488.225C386.622 485.998 387.876 483.902 389.229 481.932Z" fill="#78E185"/>
<path fill-rule="evenodd" clip-rule="evenodd" d="M1009.57 693.4L1007.05 707.405C1006.46 707.601 1005.85 707.766 1005.23 707.903C1004.44 716.251 1003.51 724.61 1002.47 732.975L986.887 819.814C984.2 835.178 981.649 850.574 979.116 865.975L975.76 882.518L973.682 892.8C969.195 915.066 964.837 937.26 961.012 959.331C961.589 960.162 962.037 961.063 962.363 962.01L962.069 963.254L961.864 964.083L961.655 964.903C958.637 976.503 953.386 987.753 941.011 991.166C931.677 993.74 921.435 993.973 911.797 994.989L910.728 995.105L742.069 1014.07C721.69 1016.36 701.32 1018.72 680.953 1021.11L663.296 1023.18C638.686 1026.03 613.934 1028.27 589.686 1033.43C588.795 1033.62 588.057 1033.98 587.455 1034.45C592.338 1015.96 597.012 997.503 601.248 978.833C606.016 957.82 610.541 936.766 615.641 915.829C625.915 873.649 637.432 831.746 650.04 790.203C652.686 781.484 655.393 772.782 658.159 764.101L660.1 758.032L661.594 753.196C663.906 745.823 666.767 738.245 673.546 734.177C681.48 729.417 692.298 728.628 701.296 726.982L707.39 725.837C716.506 724.136 725.634 722.5 734.773 720.928C778.529 713.402 822.533 707.365 866.699 702.83C912.657 698.111 958.775 695.044 1004.95 693.545L1009.57 693.4ZM590.95 982.943L591.38 982.979L585.08 1033.34C584.073 1032.64 582.794 1032.2 581.233 1032.21C560.568 1032.27 540.759 1025.66 521.599 1018.4L518.682 1017.29L510.547 1014.16C502.278 1011 493.965 1007.9 485.497 1005.33L482.074 1004.3L480.334 1003.78C473.923 1001.91 467.178 1000.21 460.509 999.785L459.6 999.735L461.542 998.716C461.826 998.567 462.075 998.4 462.296 998.22C465.967 998.492 469.645 998.418 473.517 997.72C480.799 996.409 487.88 993.876 494.382 990.349L497.286 988.775L498.475 988.145L499.26 987.738L500.041 987.343C505.625 984.559 510.965 982.816 518.016 984.298C526.02 985.983 533.035 990.297 540.25 993.942L541.53 994.58L542.391 994.996L543.269 995.409L544.157 995.814C553.914 1000.2 569.443 1004.94 573.184 991.677C574.687 986.347 573.51 981.356 570.902 976.98C575.762 976.56 584.444 982.29 590.95 982.943ZM833.827 817.016L833.945 817.62C835.325 825.047 831.865 832.153 826.629 837.332C822.334 841.58 814.733 843.941 812.58 850.052C811.354 853.529 812.658 856.826 815.176 859.125L814.596 859.412L814.029 859.702L813.475 859.994L812.936 860.289L812.41 860.586C803.856 865.501 796.89 873.492 804.605 883.145C813.357 894.096 831.644 894.451 844.528 893.594L845.396 893.533C857.889 892.597 872.688 888.4 879.463 876.864C882.57 871.572 882.228 865.172 877.897 860.643C875.284 857.911 870.623 855.105 866.349 854.773C866.536 852.365 866.249 850.039 865.402 848.076C863.57 843.833 858.695 840.976 853.993 840.873C854.374 831.864 847.157 822.97 841.844 815.768L841.301 815.029L840.775 814.302C838.337 810.91 833.12 812.811 833.827 817.016ZM840.957 826.605L845.798 844.739L845.715 844.889C844.009 848.127 848.48 851.802 851.131 849.082L851.398 848.794C854.545 845.544 859.375 849.913 859.435 853.371C859.521 858.241 856.351 862.005 852.574 864.493L852.31 864.664L851.613 865.097C848.514 867.145 850.861 871.428 854.268 870.906C858.484 870.261 861.939 866.917 864.069 862.742C866.345 863.394 868.935 863.315 871.332 864.656C877.372 868.034 873.898 873.944 869.965 877.516L869.805 877.659L869.485 877.938C862.269 884.092 852.444 886.23 843.182 886.688L842.649 886.712C833.294 887.112 821.106 887.246 813.088 881.744C808.098 878.32 806.653 873.464 810.876 868.865C813.264 866.266 815.675 863.644 818.157 861.11C821.872 862.883 825.19 862.164 828.989 860.486C829.476 860.27 829.206 859.525 828.729 859.525C826.633 859.523 818.942 855.632 818.568 853.146C818.222 850.845 822.477 848.906 824.546 847.794L824.846 847.629L825.106 847.478C827.27 846.167 829.307 844.641 831.169 842.927C835.895 838.577 839.327 833.121 840.826 827.15L840.957 826.605Z" fill="white"/>
<path fill-rule="evenodd" clip-rule="evenodd" d="M388.072 479.184C392.315 468.521 406.658 472.666 405.059 483.868C404.102 490.578 400.427 497.665 397.126 503.546C394.438 508.333 391.372 513.005 387.215 516.593C394.615 523.497 402.296 530.149 410.172 536.465C418.766 543.356 427.803 549.708 437.144 555.546C445.335 560.666 453.896 565.202 461.617 571.044C468.796 576.475 475.336 583.007 478.664 591.534C482.209 600.614 480.668 609.992 478.058 619.066L477.758 620.092C475.091 629.082 470.474 639.919 476.876 648.389C480.135 652.701 484.873 655.755 488.964 659.202C492.6 662.266 496.013 665.598 499.143 669.177C505.968 676.979 511.519 685.758 515.022 695.54L515.335 696.429C518.338 705.088 520.532 715.696 516.475 724.198C515.311 726.635 511.557 725.843 510.905 723.47C509.431 718.094 509.508 712.464 508.272 707.012C506.986 701.342 504.846 695.96 502.051 690.868C496.643 681.017 489.319 672.603 480.666 665.489L478.076 663.382C471.326 657.843 465.124 651.966 463.754 642.798C462.288 632.989 466.218 623.645 468.745 614.361C470.506 607.891 471.081 601.689 469.178 595.842C466.853 599.637 463.681 603.239 461.172 606.452C456.175 612.853 451.131 619.215 446.1 625.589C440.942 632.125 435.911 638.764 431.12 645.575C428.977 648.622 426.857 651.687 424.744 654.755C423.155 657.061 420.939 659.365 419.207 661.717C419.628 662.975 419.596 664.425 418.833 665.455C409.648 677.865 396.581 651.971 393.173 645.429C386.233 632.106 381.068 617.952 374.105 604.632C366.89 590.824 358.674 577.384 349.517 564.778C343.978 557.153 337.77 549.991 332.703 542.124C320.766 552.948 305.058 560.204 290.63 566.784C274.777 574.012 258.308 579.918 242.055 586.188L237.254 588.053C209.249 598.982 180.56 610.99 157.283 630.403C129.93 653.216 113.748 685.012 101.701 717.938C87.8328 755.843 76.3598 794.771 65.6648 833.674C60.1918 853.579 54.9988 873.574 50.1168 893.633C45.8148 911.305 42.2488 929.153 37.2688 946.643C47.3688 946.286 58.8878 950.196 67.5108 951.325C106.81 956.469 145.58 964.669 182.683 978.866C187.266 980.62 188.592 985.197 187.594 988.907C190.237 988.161 192.878 987.405 195.521 986.663C192.625 982.226 194.007 974.294 194.235 969.376L194.249 969.038C194.483 962.485 195.194 955.925 195.655 949.384C196.533 936.915 197.675 924.537 199.195 912.14L199.583 909.04C201.305 895.552 202.578 881.985 204.457 868.52L204.679 866.979C203.778 863.534 202.729 860.131 201.628 856.743C198.694 847.718 194.553 839.223 190.924 830.482C190.496 829.453 191.962 828.862 192.647 829.479C198.793 835.008 203.675 842.022 207.597 849.358C207.665 849.012 207.725 848.665 207.796 848.319L208.243 846.116C209.347 840.744 210.689 835.092 213.985 830.735C214.336 830.272 215.03 830.175 215.362 830.735C218.516 836.072 218.869 842.831 219.354 848.904C219.903 855.774 219.972 862.731 219.875 869.62C219.686 883.083 218.737 896.584 217.981 910.025C217.239 923.233 215.783 936.274 213.906 949.352L213.549 951.805C212.631 958.03 211.88 964.332 210.67 970.515L210.328 972.198C209.681 975.264 209.283 979.587 207.995 983.178C241.133 973.935 274.322 964.903 307.574 956.03C331.607 949.616 355.665 943.298 379.713 936.94C380.982 934.653 382.562 932.517 384.534 930.608C391.031 924.316 399.641 921.509 407.538 926.352C408.18 926.747 408.234 927.753 407.538 928.134C406.025 928.961 404.509 929.809 403.02 930.693L417.46 926.782C428.253 923.857 439.175 920.202 450.222 918.163C470.569 908.122 492.453 900.854 513.887 893.671L516.413 892.817C527.387 889.075 538.739 884.886 550.078 882.812C558.379 881.294 568.123 883.126 571.461 891.63C575.687 894.415 579.663 897.688 583.5 900.907C586.274 903.233 588.933 905.706 591.637 908.114L592.135 908.552C594.346 910.47 596.097 911.754 596.64 914.807C596.92 916.384 595.918 918.516 593.973 918.307C588.022 917.67 583.183 910.772 579.147 906.653C576.029 903.469 572.886 900.177 570.04 896.678C568.381 897.581 566.107 897.419 565.051 895.419C559.575 885.05 544.574 892.235 536.274 894.694L524.384 898.213C518.439 899.975 512.497 901.746 506.565 903.548C490.261 908.499 474.037 914.04 457.585 918.587C459.057 920.205 458.854 923.083 456.058 924.178C443.18 929.231 429.052 931.844 415.673 935.311C407.226 937.502 398.784 939.706 390.345 941.923C388.898 944.267 387.857 946.919 387.419 950.006C385.808 961.356 388.914 974.452 391.94 985.431L392.396 987.069C394.883 995.895 398.542 1006.71 406.157 1012.29C408.016 1013.65 410.383 1014.59 412.769 1014.81C427.676 1007.13 442.582 999.462 457.497 991.804C460.26 990.385 462.813 992.306 463.433 994.59C468.692 993.727 473.939 992.367 478.718 990.745C486.748 988.018 493.018 982.817 500.546 979.22C515.112 972.262 529.987 980.809 543.028 987.307L546.034 988.784C551.882 991.621 564.049 997.073 566.856 989.312C569.57 981.804 560.989 973.78 555.447 970.401C548.841 966.372 541.149 964.216 533.683 962.42C529.42 961.394 525.105 960.557 520.764 959.946C515.84 959.253 510.754 959.357 506.013 957.76C503.657 956.968 503.295 953.226 506.013 952.608C513.311 950.947 522.021 952.759 529.637 954.61L533.618 955.591C541.291 957.474 549.038 959.837 556.027 963.593C561.109 966.325 566.473 970.475 569.977 975.555C573.02 972.728 576.807 972.824 580.752 973.872L582.893 974.467C586.429 975.447 589.295 976.122 592.736 975.443C593.196 972.94 593.662 970.436 594.161 967.932C599.064 943.318 604.441 918.798 610.374 894.409C620.608 852.341 632.45 810.735 645.8 769.555L647.14 765.439C650.219 756.02 652.697 745.758 657.661 737.105C662.356 728.923 669.878 724.21 678.815 721.714C688.957 718.882 699.614 717.4 709.96 715.487C712.268 715.061 714.582 714.656 716.892 714.237C714.94 710.712 713.483 706.711 712.17 703.641L711.94 703.109C709.12 696.68 706.587 690.136 704.141 683.556L702.312 678.61C697.895 666.699 693.336 654.984 687.127 643.844C680.591 632.12 671.92 622.535 661.111 614.602C639.073 598.426 612.51 590.175 591.135 572.888C590.259 572.18 591.382 570.969 592.271 571.417C606.704 578.669 622.285 583.6 637.297 589.504L640.258 590.672C652.124 595.376 664.174 600.497 674.444 608.112C685.894 616.604 694.912 627.15 701.69 639.691C708.37 652.053 712.643 665.89 717.356 679.094L718.616 682.612C720.517 687.888 722.481 693.148 724.731 698.282C726.517 702.358 729.85 707.011 731.365 711.667C735.51 710.948 739.654 710.227 743.803 709.534C833.67 694.53 924.541 685.714 1015.61 683.135C1019.18 683.034 1021.02 686.434 1020.49 689.542C1011.75 741.223 1003.99 793.081 995.466 844.801C991.746 867.374 987.952 889.93 984.069 912.475C982.102 923.897 979.828 935.275 977.965 946.714C976.461 955.952 975.369 965.262 972.787 974.286C970.471 982.377 966.917 990.179 961.08 996.352C954.788 1003.01 946.006 1006.23 937.166 1007.75C914.725 1011.61 891.707 1013.19 869.084 1015.76L748.637 1029.46C750.397 1045.46 750.528 1061.21 749.721 1077.4L749.261 1086.23C748.884 1093.34 748.435 1100.46 747.414 1107.49C746.134 1116.31 742.098 1123.78 736.153 1130.37C730.694 1136.43 724.062 1141.59 717.611 1146.54C710.915 1151.68 703.996 1156.63 696.123 1159.81L695.101 1160.22C688.194 1162.91 675.238 1167.09 665.797 1165.56C667.031 1171.75 669.419 1178.39 667.302 1184.51C666.32 1187.35 662.605 1188.77 660.329 1186.35C655.82 1181.56 655.468 1175.23 654.4 1168.98C653.289 1162.48 652.331 1155.95 651.48 1149.41C649.834 1136.76 648.553 1123.99 648.162 1111.23C647.76 1098.13 647.915 1085.01 648.621 1071.92C648.984 1065.2 649.434 1058.49 650.287 1051.81C650.651 1048.96 651.023 1046.11 651.448 1043.27C651.603 1042.23 651.775 1041.2 651.96 1040.17L641.149 1041.39C624.572 1043.24 607.988 1044.92 591.294 1045.17C589.317 1045.2 587.796 1044.3 586.802 1042.99C585.743 1044.72 583.899 1045.95 581.258 1045.94C557.945 1045.86 536.235 1038.23 515.031 1029.25C504.343 1024.72 493.821 1019.81 483.117 1015.32C473.126 1011.13 462.445 1008.14 452.695 1003.42L427.075 1016.86C426.887 1017.52 426.646 1018.14 426.39 1018.67C424.722 1022.07 421.433 1023.92 418.074 1025.31C414.85 1026.65 411.511 1027.06 408.258 1026.72C388.828 1036.91 369.393 1047.08 349.945 1057.23L330.493 1067.37C291.737 1087.55 253.134 1108.06 214.134 1127.76L211.263 1129.21C197.792 1135.96 183.327 1142.81 168.378 1147.92C168.112 1151.7 168.28 1155.38 168.597 1159.39L168.673 1160.26C169.119 1164.99 170.075 1170.92 166.278 1174.29C164.303 1176.04 160.775 1176.05 159.432 1173.41C156.995 1168.62 159.183 1161.06 159.955 1155.86C160.229 1154.01 160.563 1152.11 161.057 1150.26C143.919 1155.36 126.262 1157.84 108.822 1154.97C91.8418 1152.18 78.6908 1141.49 68.0888 1128.4C56.8998 1114.6 48.9488 1098.5 44.6828 1081.26C39.8278 1061.63 39.5108 1041.36 39.6248 1021.25C39.7458 999.844 40.5378 978.329 43.1418 957.064C40.2888 956.393 37.1248 955.813 34.2418 956.013C32.8138 958.298 30.0438 959.26 27.5408 958.963C22.0978 964.966 35.9038 971.101 40.3158 972.637C41.8478 973.171 41.6838 975.659 39.9168 975.584L38.8038 975.531C31.9864 975.168 24.9432 974.004 20.9348 967.669C17.7228 962.591 18.6878 956.575 22.5168 952.434C25.0458 928.522 31.0918 905.237 36.7188 881.911C42.2408 859.016 48.3818 836.268 54.8908 813.635L57.8088 803.505C68.0571 768.016 78.7692 732.241 92.9058 698.163C99.9648 681.147 108.097 664.444 119.12 649.607C129.395 635.776 141.526 623.941 155.47 613.833C181.465 594.987 211.967 583.6 241.937 572.751L243.279 572.266C258.81 566.648 274.303 560.963 289.657 554.876C303.236 549.493 316.245 542.668 329.76 537.204C329.321 536.407 328.897 535.601 328.489 534.786L328.239 534.996C328.196 535.03 328.152 535.063 328.107 535.094C326.748 536.036 324.747 535.573 323.627 534.516C320.464 531.532 321.535 528.219 323.646 525.125L323.921 524.731C326.503 521.114 328.806 517.29 331.189 513.542L332.681 511.198C336.681 504.936 340.884 498.633 346.218 493.458C348.688 491.06 351.392 489.266 354.257 487.929C354.012 487.411 356.16 486.352 356.769 486.885C365.846 483.563 376.289 484.259 386.185 485.175M742.809 1030.13L730.189 1031.56C716.305 1033.14 702.415 1034.67 688.524 1036.18L658.352 1039.46C658.275 1041.18 658.066 1042.86 658.028 1044.16C657.831 1050.86 657.684 1057.56 657.545 1064.26C657.266 1077.68 657.572 1091.13 658.456 1104.53C659.313 1117.51 660.441 1130.5 662.195 1143.4L662.554 1145.98L662.762 1147.33C664.193 1147.47 665.599 1148.15 666.768 1149.55C669.32 1152.6 678.561 1149.63 682.17 1148.35C688.105 1146.24 693.694 1142.67 698.851 1139.09C703.887 1135.6 708.422 1131.53 712.78 1127.23L716.345 1123.71C719.892 1120.18 723.443 1116.43 725.616 1111.99C728.563 1105.98 728.944 1098.6 729.808 1092.05C730.872 1084 732.139 1075.95 733.478 1067.93M376.454 945.584L375.145 945.928C327.594 958.563 280.114 971.571 232.417 983.648C208.813 989.626 185.097 995.169 161.464 1001.03L157.638 1001.99C138.994 1006.7 120.126 1012.37 105.849 1025.89C105.322 1026.39 104.557 1025.63 105.053 1025.1C120.44 1008.72 142.324 1001.78 163.336 995.774C167.22 994.663 171.109 993.578 174.994 992.473C146.418 982.286 117.391 973.423 87.6938 967.102C80.0468 965.474 72.3108 964.279 64.6698 962.645C59.3409 961.505 54.1367 959.856 48.8641 958.489L44.7168 957.446L44.6617 970.554C44.5927 989.119 44.6257 1007.67 45.5728 1026.23L45.7521 1029.67C46.8572 1050.33 48.5821 1071.41 55.9128 1090.89C61.8698 1106.72 71.3648 1121.63 83.7818 1133.16C90.0648 1138.99 96.8198 1143.53 105.17 1145.77C112.923 1147.86 121.046 1148.1 129.016 1147.54C167.245 1144.88 201.275 1124.11 234.483 1106.92C288.8 1078.79 343.123 1050.68 397.495 1022.67C396.025 1021.66 394.641 1020.51 393.382 1019.21C386.091 1011.68 382.245 1001.37 379.719 991.385C377.03 980.759 375.422 969.37 375.235 958.4M445.637 1033.53C446.117 1033.27 446.673 1033.59 446.695 1034.13C446.863 1038.29 444.568 1042.38 442.853 1046.12L442.672 1046.52C440.589 1051.16 438.308 1055.73 435.949 1060.23C431.234 1069.22 426.334 1078.11 421.22 1086.88C410.936 1104.52 399.508 1121.42 386 1136.78C382.949 1140.25 377.931 1135.8 379.889 1132.07C389.329 1114.06 400.334 1097.05 411.662 1080.2C417.333 1071.76 423 1063.31 428.727 1054.91C431.116 1051.4 433.536 1047.91 436.021 1044.47L437.52 1042.41M1009.59 693.45C961.875 694.891 914.214 698.003 866.724 702.88C822.558 707.415 778.554 713.452 734.798 720.978C725.659 722.55 716.531 724.186 707.414 725.887L701.946 726.915C692.828 728.643 681.689 729.356 673.571 734.227C665.012 739.362 662.699 750.094 659.851 758.944C656.503 769.352 653.24 779.79 650.065 790.253C637.457 831.796 625.94 873.699 615.666 915.879C610.566 936.816 606.041 957.87 601.273 978.883C597.037 997.553 592.363 1016.01 587.48 1034.49C588.082 1034.03 588.82 1033.67 589.711 1033.48C613.959 1028.32 638.71 1026.08 663.321 1023.23L665.702 1022.95C691.161 1019.96 716.62 1016.99 742.094 1014.12L910.753 995.155C920.7 994.037 931.356 993.885 941.036 991.216C957.494 986.676 961.351 968.276 964.112 953.623L964.196 953.18C972.521 908.907 979.148 864.249 986.912 819.864M591.405 983.029C584.857 982.597 575.895 976.6 570.927 977.03C573.535 981.406 574.712 986.397 573.209 991.727C569.026 1006.56 550.109 998.885 540.997 994.354C533.526 990.637 526.312 986.089 518.041 984.348C508.671 982.378 502.323 986.104 494.407 990.399C487.905 993.926 480.824 996.459 473.542 997.77C469.67 998.468 465.992 998.542 462.321 998.27C462.1 998.45 461.851 998.617 461.567 998.766L459.625 999.785C468.406 1000.19 477.35 1002.9 485.522 1005.38C493.99 1007.95 502.303 1011.05 510.572 1014.21L518.706 1017.34C538.772 1025.02 559.542 1032.32 581.258 1032.26C582.819 1032.25 584.098 1032.68 585.105 1033.39M554.769 936.555C561.238 935.764 567.209 936.612 572.378 940.823C578.612 945.901 582.8 954.323 591.762 954.876C594.375 955.037 594.982 958.711 592.385 959.479C585.714 961.454 580.313 957.845 575.768 953.159L572.712 949.966C568.221 945.315 564.078 941.72 556.457 941.998C548.295 942.296 540.119 944.182 532.01 945.141C522.824 946.227 513.64 947.153 504.425 947.952C503.997 947.989 503.924 947.315 504.325 947.216L514.646 944.647M548.525 910.109L549.592 910.002C558.985 909.09 567.576 909.054 575.966 914.108L577.575 915.081C585.139 919.678 593.372 925.094 598.102 932.538C598.876 933.757 597.597 935.19 596.302 934.88C587.211 932.698 580.565 926.028 572.92 921.036C564.34 915.434 555.477 916.358 545.694 917.228C536.222 918.071 526.755 919.229 517.376 920.808C508.563 922.29 499.722 924.63 490.82 925.376L490.822 925.358C489.805 925.356 489.225 923.829 490.262 923.311C499.296 918.8 509.759 916.665 519.586 914.604M833.89 817.264C832.982 812.921 838.324 810.907 840.8 814.352L841.326 815.078C846.675 822.407 854.411 831.603 854.018 840.923C858.72 841.026 863.595 843.883 865.427 848.126C866.274 850.089 866.561 852.415 866.374 854.823C870.648 855.155 875.309 857.961 877.922 860.693C882.253 865.222 882.595 871.622 879.488 876.914C872.713 888.45 857.914 892.646 845.421 893.583L844.976 893.615C832.072 894.507 813.478 894.266 804.63 883.195C796.095 872.516 805.528 863.87 815.201 859.175C812.683 856.876 811.379 853.579 812.605 850.102C814.758 843.991 822.359 841.63 826.654 837.382C831.889 832.202 835.349 825.097 833.97 817.669M840.981 826.655C839.558 832.839 836.062 838.495 831.193 842.977C829.331 844.691 827.294 846.217 825.13 847.528L824.87 847.679C822.95 848.757 818.229 850.777 818.592 853.196C818.966 855.682 826.657 859.573 828.753 859.575C829.23 859.575 829.5 860.32 829.013 860.536C825.214 862.214 821.896 862.933 818.181 861.16C815.699 863.694 813.288 866.316 810.9 868.915C806.677 873.514 808.122 878.37 813.112 881.794C821.13 887.296 833.318 887.162 842.673 886.762C852.089 886.36 862.154 884.26 869.509 877.988L869.83 877.709C873.827 874.154 877.478 868.13 871.356 864.706C868.959 863.365 866.369 863.444 864.093 862.792C861.963 866.967 858.508 870.311 854.292 870.956C850.885 871.477 848.539 867.194 851.638 865.146L852.334 864.714C856.226 862.229 859.547 858.403 859.459 853.421C859.399 849.962 854.569 845.594 851.423 848.843L851.278 848.999C848.645 851.967 844.008 848.227 845.739 844.938L845.822 844.789M226.862 654.676C226.851 653.933 227.896 653.655 228.261 654.298C234.373 665.051 237.568 678.232 240.824 690.079C244.234 702.489 246.986 715.025 249.459 727.653C254.468 753.224 257.137 778.648 257.319 804.71C257.343 808.431 251.281 809.421 250.688 805.608C246.751 780.257 242.979 754.88 239.012 729.536C237.016 716.789 234.694 704.091 232.47 691.382M287.371 673.405C286.921 671.922 289.079 671.426 289.631 672.782C301.897 702.891 306.051 737.013 298.176 768.778C296.971 773.637 289.854 771.532 290.763 766.734M445.588 646.651C445.526 645.541 446.967 645.366 447.51 646.13C453.322 654.319 455.733 665.286 465.93 669.518C471.021 671.631 476.75 671.263 481.248 674.832C484.255 677.219 486.561 680.987 484.304 684.602C483.576 685.77 481.538 686.355 480.55 685.086C479.108 683.237 478.345 681.023 476.386 679.637C473.623 677.682 469.897 677.561 466.729 676.642C462.631 675.454 459.019 673.375 456.061 670.286M542.686 510.067C543.285 509.762 543.86 509.957 544.243 510.475C544.79 511.213 544.723 511.931 544.053 512.437C544.948 514.266 546.005 518.848 546.156 519.515C546.768 522.219 547.419 524.907 548.1 527.593C549.474 533.01 550.678 538.469 552.053 543.888C553.511 549.632 555.248 555.315 557.181 560.916C557.306 561.279 557.443 561.649 557.587 562.025L557.807 562.592L557.861 562.506C558.254 561.885 559.072 562.319 558.975 562.975C558.885 563.573 558.764 564.168 558.662 564.766L558.865 565.302C560.129 568.705 560.995 572.289 558.675 575.292C557.807 576.415 556.852 577.08 555.662 577.278C553.754 583.568 551.36 589.741 548.797 595.669L548.046 597.401C544.276 606.051 540.255 614.587 534.252 621.951C527.698 629.991 518.683 635.481 512.974 644.291C510.318 648.389 508.47 652.698 506.97 657.326L506.406 659.083C505.341 662.356 504.113 665.529 501.042 667.449C500.062 668.061 498.594 667.866 497.804 667.031C491.507 660.37 498.099 647.932 501.896 641.483C507.174 632.515 514.813 626.778 522.462 620.012C530.707 612.719 535.966 602.963 541.053 593.352C544.169 587.464 547.177 581.449 550.344 575.535C547.035 572.611 545.976 566.802 544.855 562.764L544.753 562.402C542.9 555.936 541.428 549.302 540.498 542.639C539.603 536.233 539.23 529.918 539.467 523.476L539.535 521.835M554.988 540.559C554.257 539.557 555.467 538.422 556.47 538.631C562.569 539.892 568.531 543.583 574.004 546.568L574.588 546.885C578.957 549.241 583.353 552.127 585.647 556.704C588.142 561.679 587.937 567.408 587.597 572.814L587.564 573.32C587.147 579.803 587.08 586.539 585.708 592.905C585.006 596.163 582.055 597.081 579.532 596.311C576.53 605.79 568.097 612.774 561.937 620.254C554.083 629.79 555.561 642.665 556.382 654.15C556.714 658.8 550.93 660.122 547.951 657.641L541.086 651.939C539.943 650.987 538.801 650.033 537.662 649.076C536.687 648.255 535.721 647.429 534.762 646.591L533.33 645.327C532.695 644.759 529.894 641.63 529.075 641.5C527.092 641.185 522.379 646.413 520.766 648.053L520.561 648.257C517.525 651.234 514.782 654.437 512.227 657.834C511.757 658.458 510.838 657.94 511.174 657.219C513.464 652.315 516.126 647.626 519.287 643.238L519.925 642.364C522.028 639.53 524.851 634.526 528.563 633.689C533.096 632.668 537.622 637.213 540.92 639.736L541.128 639.894C542.697 641.071 544.248 642.269 545.796 643.475C545.634 634.924 546.714 626.284 551.129 618.915C554.242 613.718 558.906 609.869 562.897 605.403C567.34 600.43 569.66 594.318 573.682 589.139C574.2 588.473 574.914 588.114 575.687 588C575.842 583.836 576.455 579.632 576.929 575.513L577.066 574.28C577.545 569.805 578.677 564.339 576.486 560.148C574.417 556.19 569.668 553.395 566.152 550.71L563.28 548.482M357.074 493.241C355.238 494.303 353.522 495.624 351.965 497.275C347.064 502.474 343.56 508.944 340.15 515.168C338.314 518.52 336.544 521.909 334.693 525.253C333.888 526.708 333.06 528.147 332.223 529.584C331.836 530.246 330.686 531.562 330.116 532.373C330.749 533.26 331.404 534.134 332.072 534.998C332.327 535.328 349.908 554.48 356.036 561.975C365.42 573.456 373.808 585.583 380.979 598.563C388.001 611.274 393.347 624.732 399.852 637.689C403.108 644.176 406.744 650.617 411.379 656.231C411.558 656.45 411.747 656.657 411.93 656.873C413.699 652.094 418.232 646.977 420.458 644.039L420.666 643.762C425.715 636.956 431.047 630.355 436.495 623.866C441.471 617.941 446.573 612.143 451.799 606.442L453.765 604.308C457.406 600.375 462.031 594.49 467.361 591.68C466.79 590.662 466.129 589.655 465.369 588.661C460.375 582.135 453.315 577.399 446.35 573.126L441.832 570.378C424.804 560.001 408.042 549.143 393.259 535.661C385.438 528.527 377.725 521.054 371.151 512.733L368.826 509.791M385.486 488.104C377.512 488.773 368.901 488.614 361.532 491.212C368.083 497.405 374.31 504.092 380.707 510.389C381.276 506.13 382.44 501.923 383.426 497.77" fill="black"/>
<path fill-rule="evenodd" clip-rule="evenodd" d="M686.871 278.553C677.72 228.654 655.156 181.175 620.503 144.026C616.504 139.615 612.911 132.657 606.809 131.545C600.684 119.064 589.009 110.241 579.676 100.162C559.305 79.851 539.815 57.154 513.54 44.328C391.671 -5.79404 274.394 137.122 249.507 244.603C224.788 331.04 251.786 450.278 358.908 453.776C374.063 473.82 394.975 487.694 416.456 500.085C445.791 518.867 477.791 526.491 511.729 516.039C545.528 524.871 580.565 496.529 600.877 471.673C616.932 452.42 627.936 428.923 642.621 408.994C659.958 408.561 674.94 393.881 677.261 376.674C693.454 346.917 692.718 311.259 686.871 278.553V278.553Z" fill="#D08B5B"/>
<path fill-rule="evenodd" clip-rule="evenodd" d="M249.507 244.603C274.394 137.122 391.671 -5.79404 513.54 44.328C539.815 57.154 559.305 79.851 579.676 100.162C589.009 110.241 600.684 119.064 606.809 131.545C612.911 132.657 616.504 139.615 620.503 144.026C655.156 181.175 677.72 228.654 686.871 278.553C692.718 311.259 693.454 346.917 677.261 376.674C674.94 393.881 659.958 408.561 642.621 408.994C639.444 413.306 636.438 417.786 633.517 422.353L632.827 422.587L632.742 417.529C631.28 335.569 626.56 286.094 618.582 269.104C610.523 251.941 575.84 220.516 514.532 174.828L512.666 173.44L498.275 161.555L487.107 174.164C445.09 221.56 412.2 258.133 388.437 283.883C362.866 311.593 341.232 353.748 323.534 410.349L322.999 412.069L354.268 453.549C251.009 446.803 225.149 329.778 249.507 244.603Z" fill="#9DDADB"/>
<path fill-rule="evenodd" clip-rule="evenodd" d="M421.415 27.3458C443.59 22.1648 466.845 23.2388 488.81 28.9328C532.345 40.2198 568.166 69.5708 597.867 102.296C626.838 134.216 650.729 170.808 668.178 210.227L669.062 212.232C681.405 240.332 692.13 269.538 692.59 300.479C692.986 327.108 690.296 354.85 681.693 380.178C674.029 402.741 659.932 425.477 635.679 430.886C621.694 466.434 594.334 497.218 559.869 513.69C538.493 523.907 515.018 528.468 491.384 526.2C467.271 523.888 444.748 512.302 425.903 497.527C425.386 497.122 426.051 496.337 426.584 496.643C449.273 509.718 476.107 514.392 502.095 513.532C544.803 512.12 583.956 489.069 606.454 452.836C612.052 443.818 617.04 434.306 621.019 424.411C620.786 423.597 620.651 422.772 620.651 421.968C620.651 418.559 622.269 415.954 624.683 414.271C625.802 410.774 626.792 407.237 627.619 403.66C629.494 395.558 630.54 387.339 631.171 379.054C631.683 372.323 631.399 365.182 632.075 358.279C631.829 352.748 631.487 347.222 630.986 341.708C629.373 323.94 626.111 306.216 619.828 289.47C613.463 272.508 603.411 257.55 590.729 244.675C563.527 217.061 529.66 196.899 503.208 168.531L501.823 167.031L501.729 167.001C498.447 170.366 495.167 173.731 491.878 177.089L476.852 192.416C446.182 223.732 415.761 255.352 389.08 290.2C373.717 310.267 359.914 331.302 348.021 353.608C342.389 364.172 337.283 375 332.667 386.046L330.851 390.443C328.689 395.706 326.354 401.596 325.056 407.539C328.916 411.368 331.739 416.995 334.861 421.341C338.402 426.27 342.486 430.962 346.688 435.341C350.941 439.774 355.606 444.023 360.558 447.664L361.153 448.093C366.835 452.125 373.357 454.91 374.209 462.586C374.579 465.919 371.599 468.6 368.84 469.638C361.287 472.475 353.463 464.325 348.429 459.637C345.29 456.713 342.404 453.562 339.728 450.235C337.123 450.608 334.501 450.795 331.906 450.487C327.885 450.009 323.903 449.306 319.986 448.276C287.498 439.746 263.451 412.776 250.477 382.739C233.059 342.413 233.464 295.928 240.705 253.284C253.936 175.354 296.758 102.576 361.419 56.5008C379.528 43.5968 399.609 32.4398 421.415 27.3458ZM456.418 37.7708C414.646 35.5698 376.562 57.1098 346.007 83.9228C290.373 132.743 256.105 204.223 249.211 277.626C245.548 316.626 248.289 358.663 268.625 393.12C276.515 406.489 286.677 418.138 298.672 427.96C309.975 437.217 322.859 442.552 336.633 446.182C336.006 445.318 335.387 444.448 334.785 443.565C331.581 438.874 329.036 433.888 326.904 428.664C326.716 428.852 326.362 428.89 326.153 428.603C317.459 416.674 320.18 402.44 324.324 389.322C328.669 375.563 334.176 362.175 340.461 349.188C363.37 301.86 397.444 260.629 432.814 222.154C450.878 202.505 469.541 183.425 488.135 164.28C497.421 154.72 506.682 145.132 515.826 135.434C520.377 130.606 524.9 125.753 529.382 120.861C533.814 116.024 537.802 110.901 543.32 107.278C547.719 104.391 552.11 109.909 550.054 114.013C546.892 120.325 541.454 125.329 536.642 130.462L536.146 130.994C531.455 136.058 526.72 141.081 521.957 146.077C516.479 151.823 510.958 157.53 505.42 163.222C510.143 162.675 514.922 162.36 519.617 161.647C525.993 160.679 532.283 159.253 538.541 157.702C545.136 156.069 551.646 153.984 557.929 151.392C563.832 148.958 569.411 145.058 575.906 144.676C581.404 144.352 583.121 151.159 580.075 154.741C575.877 159.677 568.33 161.62 562.192 163.452L561.325 163.714C554.536 165.786 547.589 167.341 540.567 168.38C531.328 169.748 520.65 170.374 510.765 168.974C530.505 180.548 548.67 194.892 566.783 208.88L569.979 211.345C587.676 224.961 604.948 239.639 617.566 258.268C629.344 275.659 636.456 295.906 640.447 316.421C642.416 326.542 643.715 336.77 644.587 347.041C647.836 356.147 647.315 366.974 646.496 376.989L646.204 380.446L646.226 381.46C646.348 387.724 648.865 401.671 642.937 406.401C642.836 406.905 642.742 407.412 642.636 407.916C643.374 407.46 644.103 406.991 644.826 406.509C645.123 406.31 645.411 406.091 645.702 405.876L646.521 405.203C646.553 405.177 646.58 405.154 646.601 405.135C648.441 403.52 650.196 401.834 651.832 400.011C654.855 396.642 657.729 392.361 660.451 387.429C666.432 376.589 670.253 364.805 673.208 352.621C678.61 330.346 680.839 306.421 678.375 283.577C678.031 280.388 677.325 276.39 676.23 272.288C673.63 262.548 670.639 252.911 667.29 243.404C660.591 224.385 652.379 205.934 642.804 188.19C623.358 152.15 598.338 118.83 568.36 90.8688C538.001 62.5518 498.63 39.9948 456.418 37.7708ZM397.51 152.921C399.016 152.001 400.566 153.788 399.819 155.23C396.202 162.209 390.12 168.101 385.068 174.081C379.837 180.273 374.644 186.499 369.464 192.734C358.916 205.429 348.621 218.357 338.732 231.573L336.121 235.069C327.427 246.739 318.839 258.595 311.239 270.995C307.263 277.482 303.759 284.191 300.577 291.1C297.548 297.677 296.151 305.616 292.511 311.794C292.282 312.184 291.572 312.152 291.484 311.659C290.296 305.007 293.231 296.995 295.328 290.766C297.821 283.358 301.369 276.302 305.167 269.487C313.089 255.271 322.581 241.946 332.117 228.782C341.802 215.415 351.857 202.321 362.406 189.623C367.361 183.658 372.427 177.813 377.644 172.083L379.608 169.94C385.073 164.012 390.581 157.151 397.51 152.921ZM372.185 132.254C374.662 130.419 376.776 134.169 375.196 136.157C365.757 148.031 355.017 158.7 344.687 169.774C334.767 180.409 325.285 191.442 316.338 202.909C298.095 226.292 283.492 251.95 271.124 278.841C270.891 279.348 270.157 278.97 270.267 278.48C276.818 249.393 292.134 222.975 309.573 199.106L310.236 198.201C327.875 174.198 348.151 150.069 372.185 132.254Z" fill="black"/>
<path fill-rule="evenodd" clip-rule="evenodd" d="M495.587 468.927C488.864 466.184 482.866 461.61 478.481 455.766C476.957 453.735 476.561 451.59 476.881 449.628C477.241 447.421 478.546 445.422 480.326 444.081C482.112 442.735 484.345 442.072 486.504 442.41C488.381 442.704 490.248 443.731 491.727 445.862L492.035 446.288C494.642 449.815 498.04 452.709 501.91 454.574C505.641 456.372 509.814 457.211 514.132 456.723C522.356 455.794 528.024 451.346 534.049 445.307C534.796 444.544 535.543 443.758 536.294 442.959C536.768 442.234 537.426 441.769 538.157 441.524C538.968 441.253 539.886 441.269 540.726 441.562C541.537 441.845 542.262 442.381 542.747 443.095C543.209 443.773 543.471 444.61 543.386 445.574C542.835 451.833 539.562 457.419 534.914 461.805C529.752 466.677 522.909 470.047 516.466 471.229C509.368 472.531 502.136 471.598 495.587 468.927V468.927ZM519.814 372.367C527.366 376.957 538.872 387.66 530.748 399.04C521.186 409.073 507.418 397.569 500.634 392.366C494.343 388.334 487.275 398.704 493.112 403.413C542.136 439.708 562.031 373.567 523.634 366.97C519.406 366.243 517.836 370.947 519.814 372.367ZM431.963 330.146C432.798 319.79 448.57 317.438 450.139 327.686C451.544 336.866 449.89 345.299 445.755 353.564C441.804 361.46 431.874 357.777 431.123 350.587C430.116 340.949 431.444 336.589 431.963 330.146ZM552.027 325.561C554.226 322.681 557.401 320.715 561.205 321.826C573.09 325.299 569.587 342.172 565.413 350.385C563.145 354.845 555.814 355.976 552.501 352.049C547.101 345.645 544.515 332.856 551.38 326.548C551.566 326.222 551.773 325.893 552.027 325.561ZM445.588 284.83L447.465 284.502C453.273 283.497 460.494 282.532 464.603 287.201C466.782 289.677 467.532 294.279 464.603 296.649C459.451 300.819 453.755 299.203 447.581 299.556C442.493 299.848 437.603 300.69 432.702 302.091C421.95 305.164 413.189 310.774 404.006 316.934C402.801 317.742 401.571 316.201 402.146 315.074C407.447 304.691 417.72 296.162 428.01 290.963C433.502 288.188 439.512 285.886 445.588 284.83ZM541.193 280.179L542.63 280.473C558.267 283.742 578.583 290.271 585.988 305.631C586.271 307.803 585.972 308.268 585.73 308.572L585.649 308.673C585.45 308.933 585.29 309.291 584.349 309.587C584.087 309.525 583.824 309.459 583.557 309.389C580.163 308.499 577.477 307.274 574.877 306.002L572.058 304.613C568.788 303.01 565.488 301.465 561.992 300.324C554.53 297.89 546.854 296.175 539.06 295.26C537.37 295.061 535.744 294.491 534.46 293.514C533.242 292.587 532.311 291.302 531.887 289.595C531.337 287.386 531.495 285.714 532.68 283.721C533.572 282.224 534.847 281.187 536.311 280.591C537.804 279.984 539.503 279.841 541.193 280.179Z" fill="black"/>
</svg>
