<svg width="1617" height="1495" viewBox="0 0 1617 1495" fill="none" xmlns="http://www.w3.org/2000/svg">
<path d="M1617 747.5C1617 1160.33 1255.02 1495 808.5 1495C361.978 1495 0 1160.33 0 747.5C0 334.667 361.978 0 808.5 0C1255.02 0 1617 334.667 1617 747.5Z" fill="#FDEA6B"/>
<path fill-rule="evenodd" clip-rule="evenodd" d="M1409.08 966.472C1394.8 967.874 1380.52 969.274 1366.24 970.676C1297.86 975.901 1229.49 986.813 1161.63 993.362C1159.94 990.612 1156.63 991.065 1154.63 992.976C1147.85 992.383 1140.26 987.207 1134.13 992.591C1133.93 992.563 1133.73 992.53 1133.53 992.511C1122.61 971.548 1115.06 949.189 1107.73 926.8C1103.05 913.035 1096.76 899.71 1085.13 890.468C1065.29 876.693 1019.82 848.76 996.521 849.934C996.134 845.762 994.189 841.462 990.996 838.684C998.034 826.685 969.893 818.856 967.908 820.247C969.18 780.159 950.323 745.345 908.743 737.362C871.492 729.6 818.51 728.296 798.476 767.225C796.273 766.977 773.762 766.86 771.584 767.104C768.198 762.815 731.008 803.457 746.251 817.606C609.978 877.888 532.493 870.695 494.775 1040.16C489.676 1056.08 489.305 1073.51 483.92 1089.07C464.764 1133.8 449.226 1181.43 445.359 1230.1C436.02 1232.5 434.946 1248.96 445.764 1251.35C449.896 1252.26 453.351 1253.5 456.364 1255.86C454.009 1295.75 463.656 1386.86 469.734 1386.58C482.127 1426.02 537.409 1437.15 576.547 1423.29C569.8 1435.99 576.547 1443.97 576.547 1450.75C717.374 1456.08 871.353 1453.01 1012.14 1460.32C1030.15 1460.06 1049.09 1464.74 1066.86 1462.05C1077.69 1459.45 1077.71 1442.42 1066.72 1440.31L1114.73 1429.88C1113.66 1429.48 1134.52 1415.6 1150.29 1389.67C1164.97 1360.66 1154.98 1325.64 1161.63 1294.08C1213.57 1289.83 1266.38 1288.02 1317.75 1279.22C1324.76 1300.18 1355.08 1275.11 1364.72 1265.03C1364.71 1265.01 1364.7 1265 1364.69 1264.98C1369.35 1263.71 1373.09 1259.34 1373.22 1254.16C1376.49 1249.49 1377.17 1242.9 1374.04 1238.38C1388.42 1155.41 1410.34 1070.7 1418.26 986.952C1421.06 986.332 1423.7 985.104 1425.93 983.212L1425.75 983.031C1429.54 978.807 1430.28 971.516 1423.96 967.927C1418.87 965.029 1414.61 965.928 1409.08 966.472Z" fill="#D08B5B"/>
<path fill-rule="evenodd" clip-rule="evenodd" d="M866 1277L877 1284L967 1313L1022 1320L1067 1313V1390L1076 1462C1072 1469.33 1034 1469.33 962 1462C916.102 1457.33 748.356 1455.06 710.164 1454.06L708 1454C663.12 1452.71 618.787 1452.71 575 1454V1427L700 1365L812 1302L866 1277ZM802.229 760.932L810.495 767.104L792.448 796.754L880.361 867.865V924.664L908.193 950.988L924.102 924.664L946.519 894.852L962.45 846.528L957.026 814.692L967.934 813.664C967.987 815.84 967.978 818.036 967.908 820.247C969.893 818.856 998.034 826.685 990.996 838.684C994.189 841.462 996.134 845.762 996.521 849.934C1019.82 848.76 1065.29 876.693 1085.13 890.468C1096.76 899.71 1103.05 913.035 1107.73 926.8L1108.83 930.158L1109.97 933.605L1111.11 937.05C1117.44 955.985 1124.28 974.749 1133.53 992.511C1133.73 992.53 1133.93 992.563 1134.13 992.591C1140.26 987.207 1147.85 992.383 1154.63 992.976C1156.59 991.11 1159.79 990.634 1161.51 993.175L1161.63 993.362L1077.26 1009.98L1021.6 1205.23L973.126 1165.88L947.108 1169.75L878.399 1194.53L798.486 1215.29L616.055 1265.58H592.824L457.639 1232.94L445.456 1228.92C449.479 1180.66 464.92 1133.44 483.92 1089.07C489.305 1073.51 489.676 1056.08 494.775 1040.16C532.493 870.695 609.978 877.888 746.251 817.606C731.008 803.457 768.198 762.815 771.584 767.104L771.798 767.085L772.259 767.061L772.854 767.04C778.17 766.885 796.5 767.003 798.476 767.225C799.622 764.998 800.876 762.902 802.229 760.932Z" fill="#78E185"/>
<path fill-rule="evenodd" clip-rule="evenodd" d="M1422.57 972.4L1420.05 986.405C1419.46 986.601 1418.85 986.766 1418.23 986.903C1417.44 995.251 1416.51 1003.61 1415.47 1011.97L1399.89 1098.81C1397.2 1114.18 1394.65 1129.57 1392.12 1144.97L1388.76 1161.52L1386.68 1171.8C1382.2 1194.07 1377.84 1216.26 1374.01 1238.33C1374.59 1239.16 1375.04 1240.06 1375.36 1241.01L1375.07 1242.25L1374.86 1243.08L1374.65 1243.9C1371.64 1255.5 1366.39 1266.75 1354.01 1270.17C1344.68 1272.74 1334.44 1272.97 1324.8 1273.99L1323.73 1274.11L1155.07 1293.07C1134.69 1295.36 1114.32 1297.72 1093.95 1300.11L1076.3 1302.18C1051.69 1305.03 1026.93 1307.27 1002.69 1312.43C1001.8 1312.62 1001.06 1312.98 1000.46 1313.45C1005.34 1294.96 1010.01 1276.5 1014.25 1257.83C1019.02 1236.82 1023.54 1215.77 1028.64 1194.83C1038.92 1152.65 1050.43 1110.75 1063.04 1069.2C1065.69 1060.48 1068.39 1051.78 1071.16 1043.1L1073.1 1037.03L1074.59 1032.2C1076.91 1024.82 1079.77 1017.24 1086.55 1013.18C1094.48 1008.42 1105.3 1007.63 1114.3 1005.98L1120.39 1004.84C1129.51 1003.14 1138.63 1001.5 1147.77 999.928C1191.53 992.402 1235.53 986.365 1279.7 981.83C1325.66 977.111 1371.78 974.044 1417.95 972.545L1422.57 972.4ZM1003.95 1261.94L1004.38 1261.98L998.08 1312.34C997.073 1311.64 995.794 1311.2 994.233 1311.21C973.568 1311.27 953.759 1304.66 934.599 1297.4L931.682 1296.29L923.547 1293.16C915.278 1290 906.965 1286.9 898.497 1284.33L895.074 1283.3L893.334 1282.78C886.923 1280.91 880.178 1279.21 873.509 1278.79L872.6 1278.74L874.542 1277.72C874.826 1277.57 875.075 1277.4 875.296 1277.22C878.967 1277.49 882.645 1277.42 886.517 1276.72C893.799 1275.41 900.88 1272.88 907.382 1269.35L910.286 1267.78L911.475 1267.14L912.26 1266.74L913.041 1266.34C918.625 1263.56 923.965 1261.82 931.016 1263.3C939.02 1264.98 946.035 1269.3 953.25 1272.94L954.53 1273.58L955.391 1274L956.269 1274.41L957.157 1274.81C966.914 1279.2 982.443 1283.94 986.184 1270.68C987.687 1265.35 986.51 1260.36 983.902 1255.98C988.762 1255.56 997.444 1261.29 1003.95 1261.94ZM1246.83 1096.02L1246.94 1096.62C1248.32 1104.05 1244.86 1111.15 1239.63 1116.33C1235.33 1120.58 1227.73 1122.94 1225.58 1129.05C1224.35 1132.53 1225.66 1135.83 1228.18 1138.13L1227.6 1138.41L1227.03 1138.7L1226.48 1138.99L1225.94 1139.29L1225.41 1139.59C1216.86 1144.5 1209.89 1152.49 1217.6 1162.15C1226.36 1173.1 1244.64 1173.45 1257.53 1172.59L1258.4 1172.53C1270.89 1171.6 1285.69 1167.4 1292.46 1155.86C1295.57 1150.57 1295.23 1144.17 1290.9 1139.64C1288.28 1136.91 1283.62 1134.11 1279.35 1133.77C1279.54 1131.37 1279.25 1129.04 1278.4 1127.08C1276.57 1122.83 1271.69 1119.98 1266.99 1119.87C1267.37 1110.86 1260.16 1101.97 1254.84 1094.77L1254.3 1094.03L1253.77 1093.3C1251.34 1089.91 1246.12 1091.81 1246.83 1096.02ZM1253.96 1105.61L1258.8 1123.74L1258.71 1123.89C1257.01 1127.13 1261.48 1130.8 1264.13 1128.08L1264.4 1127.79C1267.54 1124.54 1272.37 1128.91 1272.43 1132.37C1272.52 1137.24 1269.35 1141.01 1265.57 1143.49L1265.31 1143.66L1264.61 1144.1C1261.51 1146.14 1263.86 1150.43 1267.27 1149.91C1271.48 1149.26 1274.94 1145.92 1277.07 1141.74C1279.34 1142.39 1281.93 1142.32 1284.33 1143.66C1290.37 1147.03 1286.9 1152.94 1282.96 1156.52L1282.81 1156.66L1282.48 1156.94C1275.27 1163.09 1265.44 1165.23 1256.18 1165.69L1255.65 1165.71C1246.29 1166.11 1234.11 1166.25 1226.09 1160.74C1221.1 1157.32 1219.65 1152.46 1223.88 1147.87C1226.26 1145.27 1228.67 1142.64 1231.16 1140.11C1234.87 1141.88 1238.19 1141.16 1241.99 1139.49C1242.48 1139.27 1242.21 1138.53 1241.73 1138.53C1239.63 1138.52 1231.94 1134.63 1231.57 1132.15C1231.22 1129.85 1235.48 1127.91 1237.55 1126.79L1237.85 1126.63L1238.11 1126.48C1240.27 1125.17 1242.31 1123.64 1244.17 1121.93C1248.89 1117.58 1252.33 1112.12 1253.83 1106.15L1253.96 1105.61Z" fill="white"/>
<path fill-rule="evenodd" clip-rule="evenodd" d="M801.072 758.184C805.315 747.521 819.658 751.666 818.059 762.868C817.102 769.578 813.427 776.665 810.126 782.546C807.438 787.333 804.372 792.005 800.215 795.593C807.615 802.497 815.296 809.149 823.172 815.465C831.766 822.356 840.803 828.708 850.144 834.546C858.335 839.666 866.896 844.202 874.617 850.044C881.796 855.475 888.336 862.007 891.664 870.534C895.209 879.614 893.668 888.992 891.058 898.066L890.758 899.092C888.091 908.082 883.474 918.919 889.876 927.389C893.135 931.701 897.873 934.755 901.964 938.202C905.6 941.266 909.013 944.598 912.143 948.177C918.968 955.979 924.519 964.758 928.022 974.54L928.335 975.429C931.338 984.088 933.532 994.696 929.475 1003.2C928.311 1005.63 924.557 1004.84 923.905 1002.47C922.431 997.094 922.508 991.464 921.272 986.012C919.986 980.342 917.846 974.96 915.051 969.868C909.643 960.017 902.319 951.603 893.666 944.489L891.076 942.382C884.326 936.843 878.124 930.966 876.754 921.798C875.288 911.989 879.218 902.645 881.745 893.361C883.506 886.891 884.081 880.689 882.178 874.842C879.853 878.637 876.681 882.239 874.172 885.452C869.175 891.853 864.131 898.215 859.1 904.589C853.942 911.125 848.911 917.764 844.12 924.575C841.977 927.622 839.857 930.687 837.744 933.755C836.155 936.061 833.939 938.365 832.207 940.717C832.628 941.975 832.596 943.425 831.833 944.455C822.648 956.865 809.581 930.971 806.173 924.429C799.233 911.106 794.068 896.952 787.105 883.632C779.89 869.824 771.674 856.384 762.517 843.778C756.978 836.153 750.77 828.991 745.703 821.124C733.766 831.948 718.058 839.204 703.63 845.784C687.777 853.012 671.308 858.918 655.055 865.188L650.254 867.053C622.249 877.982 593.56 889.99 570.283 909.403C542.93 932.216 526.748 964.012 514.701 996.938C500.833 1034.84 489.36 1073.77 478.665 1112.67C473.192 1132.58 467.999 1152.57 463.117 1172.63C458.815 1190.3 455.249 1208.15 450.269 1225.64C460.369 1225.29 471.888 1229.2 480.511 1230.32C519.81 1235.47 558.58 1243.67 595.683 1257.87C600.266 1259.62 601.592 1264.2 600.594 1267.91C603.237 1267.16 605.878 1266.4 608.521 1265.66C605.625 1261.23 607.007 1253.29 607.235 1248.38L607.249 1248.04C607.483 1241.48 608.194 1234.92 608.655 1228.38C609.533 1215.91 610.675 1203.54 612.195 1191.14L612.583 1188.04C614.305 1174.55 615.578 1160.98 617.457 1147.52L617.679 1145.98C616.778 1142.53 615.729 1139.13 614.628 1135.74C611.694 1126.72 607.553 1118.22 603.924 1109.48C603.496 1108.45 604.962 1107.86 605.647 1108.48C611.793 1114.01 616.675 1121.02 620.597 1128.36C620.665 1128.01 620.725 1127.66 620.796 1127.32L621.243 1125.12C622.347 1119.74 623.689 1114.09 626.985 1109.73C627.336 1109.27 628.03 1109.17 628.362 1109.73C631.516 1115.07 631.869 1121.83 632.354 1127.9C632.903 1134.77 632.972 1141.73 632.875 1148.62C632.686 1162.08 631.737 1175.58 630.981 1189.02C630.239 1202.23 628.783 1215.27 626.906 1228.35L626.549 1230.8C625.631 1237.03 624.88 1243.33 623.67 1249.51L623.328 1251.2C622.681 1254.26 622.283 1258.59 620.995 1262.18C654.133 1252.93 687.322 1243.9 720.574 1235.03C744.607 1228.62 768.665 1222.3 792.713 1215.94C793.982 1213.65 795.562 1211.52 797.534 1209.61C804.031 1203.32 812.641 1200.51 820.538 1205.35C821.18 1205.75 821.234 1206.75 820.538 1207.13C819.025 1207.96 817.509 1208.81 816.02 1209.69L830.46 1205.78C841.253 1202.86 852.175 1199.2 863.222 1197.16C883.569 1187.12 905.453 1179.85 926.887 1172.67L929.413 1171.82C940.387 1168.07 951.739 1163.89 963.078 1161.81C971.379 1160.29 981.123 1162.13 984.461 1170.63C988.687 1173.41 992.663 1176.69 996.5 1179.91C999.274 1182.23 1001.93 1184.71 1004.64 1187.11L1005.14 1187.55C1007.35 1189.47 1009.1 1190.75 1009.64 1193.81C1009.92 1195.38 1008.92 1197.52 1006.97 1197.31C1001.02 1196.67 996.183 1189.77 992.147 1185.65C989.029 1182.47 985.886 1179.18 983.04 1175.68C981.381 1176.58 979.107 1176.42 978.051 1174.42C972.575 1164.05 957.574 1171.23 949.274 1173.69L937.384 1177.21C931.439 1178.98 925.497 1180.75 919.565 1182.55C903.261 1187.5 887.037 1193.04 870.585 1197.59C872.057 1199.2 871.854 1202.08 869.058 1203.18C856.18 1208.23 842.052 1210.84 828.673 1214.31C820.226 1216.5 811.784 1218.71 803.345 1220.92C801.898 1223.27 800.857 1225.92 800.419 1229.01C798.808 1240.36 801.914 1253.45 804.94 1264.43L805.396 1266.07C807.883 1274.89 811.542 1285.71 819.157 1291.29C821.016 1292.65 823.383 1293.59 825.769 1293.81C840.676 1286.13 855.582 1278.46 870.497 1270.8C873.26 1269.38 875.813 1271.31 876.433 1273.59C881.692 1272.73 886.939 1271.37 891.718 1269.74C899.748 1267.02 906.018 1261.82 913.546 1258.22C928.112 1251.26 942.987 1259.81 956.028 1266.31L959.034 1267.78C964.882 1270.62 977.049 1276.07 979.856 1268.31C982.57 1260.8 973.989 1252.78 968.447 1249.4C961.841 1245.37 954.149 1243.22 946.683 1241.42C942.42 1240.39 938.105 1239.56 933.764 1238.95C928.84 1238.25 923.754 1238.36 919.013 1236.76C916.657 1235.97 916.295 1232.23 919.013 1231.61C926.311 1229.95 935.021 1231.76 942.637 1233.61L946.618 1234.59C954.291 1236.47 962.038 1238.84 969.027 1242.59C974.109 1245.32 979.473 1249.47 982.977 1254.55C986.02 1251.73 989.807 1251.82 993.752 1252.87L995.893 1253.47C999.429 1254.45 1002.3 1255.12 1005.74 1254.44C1006.2 1251.94 1006.66 1249.44 1007.16 1246.93C1012.06 1222.32 1017.44 1197.8 1023.37 1173.41C1033.61 1131.34 1045.45 1089.74 1058.8 1048.56L1060.14 1044.44C1063.22 1035.02 1065.7 1024.76 1070.66 1016.1C1075.36 1007.92 1082.88 1003.21 1091.81 1000.71C1101.96 997.882 1112.61 996.4 1122.96 994.487C1125.27 994.061 1127.58 993.656 1129.89 993.237C1127.94 989.712 1126.48 985.711 1125.17 982.641L1124.94 982.109C1122.12 975.68 1119.59 969.136 1117.14 962.556L1115.31 957.61C1110.9 945.699 1106.34 933.984 1100.13 922.844C1093.59 911.12 1084.92 901.535 1074.11 893.602C1052.07 877.426 1025.51 869.175 1004.13 851.888C1003.26 851.18 1004.38 849.969 1005.27 850.417C1019.7 857.669 1035.28 862.6 1050.3 868.504L1053.26 869.672C1065.12 874.376 1077.17 879.497 1087.44 887.112C1098.89 895.604 1107.91 906.15 1114.69 918.691C1121.37 931.053 1125.64 944.89 1130.36 958.094L1131.62 961.612C1133.52 966.888 1135.48 972.148 1137.73 977.282C1139.52 981.358 1142.85 986.011 1144.36 990.667C1148.51 989.948 1152.65 989.227 1156.8 988.534C1246.67 973.53 1337.54 964.714 1428.61 962.135C1432.18 962.034 1434.02 965.434 1433.49 968.542C1424.75 1020.22 1416.99 1072.08 1408.47 1123.8C1404.75 1146.37 1400.95 1168.93 1397.07 1191.47C1395.1 1202.9 1392.83 1214.27 1390.96 1225.71C1389.46 1234.95 1388.37 1244.26 1385.79 1253.29C1383.47 1261.38 1379.92 1269.18 1374.08 1275.35C1367.79 1282.01 1359.01 1285.23 1350.17 1286.75C1327.72 1290.61 1304.71 1292.19 1282.08 1294.76L1161.64 1308.46C1163.4 1324.46 1163.53 1340.21 1162.72 1356.4L1162.26 1365.23C1161.88 1372.34 1161.43 1379.46 1160.41 1386.49C1159.13 1395.31 1155.1 1402.78 1149.15 1409.37C1143.69 1415.43 1137.06 1420.59 1130.61 1425.54C1123.91 1430.68 1117 1435.63 1109.12 1438.81L1108.1 1439.22C1101.19 1441.91 1088.24 1446.09 1078.8 1444.56C1080.03 1450.75 1082.42 1457.39 1080.3 1463.51C1079.32 1466.35 1075.6 1467.77 1073.33 1465.35C1068.82 1460.56 1068.47 1454.23 1067.4 1447.98C1066.29 1441.48 1065.33 1434.95 1064.48 1428.41C1062.83 1415.76 1061.55 1402.99 1061.16 1390.23C1060.76 1377.13 1060.91 1364.01 1061.62 1350.92C1061.98 1344.2 1062.43 1337.49 1063.29 1330.81C1063.65 1327.96 1064.02 1325.11 1064.45 1322.27C1064.6 1321.23 1064.77 1320.2 1064.96 1319.17L1054.15 1320.39C1037.57 1322.24 1020.99 1323.92 1004.29 1324.17C1002.32 1324.2 1000.8 1323.3 999.802 1321.99C998.743 1323.72 996.899 1324.95 994.258 1324.94C970.945 1324.86 949.235 1317.23 928.031 1308.25C917.343 1303.72 906.821 1298.81 896.117 1294.32C886.126 1290.13 875.445 1287.14 865.695 1282.42L840.075 1295.86C839.887 1296.52 839.646 1297.14 839.39 1297.67C837.722 1301.07 834.433 1302.92 831.074 1304.31C827.85 1305.65 824.511 1306.06 821.258 1305.72C801.828 1315.91 782.393 1326.08 762.945 1336.23L743.493 1346.37C704.737 1366.55 666.134 1387.06 627.134 1406.76L624.263 1408.21C610.792 1414.96 596.327 1421.81 581.378 1426.92C581.112 1430.7 581.28 1434.38 581.597 1438.39L581.673 1439.26C582.119 1443.99 583.075 1449.92 579.278 1453.29C577.303 1455.04 573.775 1455.05 572.432 1452.41C569.995 1447.62 572.183 1440.06 572.955 1434.86C573.229 1433.01 573.563 1431.11 574.057 1429.26C556.919 1434.36 539.262 1436.84 521.822 1433.97C504.842 1431.18 491.691 1420.49 481.089 1407.4C469.9 1393.6 461.949 1377.5 457.683 1360.26C452.828 1340.63 452.511 1320.36 452.625 1300.25C452.746 1278.84 453.538 1257.33 456.142 1236.06C453.289 1235.39 450.125 1234.81 447.242 1235.01C445.814 1237.3 443.044 1238.26 440.541 1237.96C435.098 1243.97 448.904 1250.1 453.316 1251.64C454.848 1252.17 454.684 1254.66 452.917 1254.58L451.804 1254.53C444.986 1254.17 437.943 1253 433.935 1246.67C430.723 1241.59 431.688 1235.57 435.517 1231.43C438.046 1207.52 444.092 1184.24 449.719 1160.91C455.241 1138.02 461.382 1115.27 467.891 1092.63L470.809 1082.5C481.057 1047.02 491.769 1011.24 505.906 977.163C512.965 960.147 521.097 943.444 532.12 928.607C542.395 914.776 554.526 902.941 568.47 892.833C594.465 873.987 624.967 862.6 654.937 851.751L656.279 851.266C671.81 845.648 687.303 839.963 702.657 833.876C716.236 828.493 729.245 821.668 742.76 816.204C742.321 815.407 741.897 814.601 741.489 813.786L741.239 813.996C741.196 814.03 741.152 814.063 741.107 814.094C739.748 815.036 737.747 814.573 736.627 813.516C733.464 810.532 734.535 807.219 736.646 804.125L736.921 803.731C739.503 800.114 741.806 796.29 744.189 792.542L745.681 790.198C749.681 783.936 753.884 777.633 759.218 772.458C761.688 770.06 764.392 768.266 767.257 766.929C767.012 766.411 769.16 765.352 769.769 765.885C778.846 762.563 789.289 763.259 799.185 764.175M1155.81 1309.13L1143.19 1310.56C1129.3 1312.14 1115.42 1313.67 1101.52 1315.18L1071.35 1318.46C1071.27 1320.18 1071.07 1321.86 1071.03 1323.16C1070.83 1329.86 1070.68 1336.56 1070.54 1343.26C1070.27 1356.68 1070.57 1370.13 1071.46 1383.53C1072.31 1396.51 1073.44 1409.5 1075.19 1422.4L1075.55 1424.98L1075.76 1426.33C1077.19 1426.47 1078.6 1427.15 1079.77 1428.55C1082.32 1431.6 1091.56 1428.63 1095.17 1427.35C1101.1 1425.24 1106.69 1421.67 1111.85 1418.09C1116.89 1414.6 1121.42 1410.53 1125.78 1406.23L1129.35 1402.71C1132.89 1399.18 1136.44 1395.43 1138.62 1390.99C1141.56 1384.98 1141.94 1377.6 1142.81 1371.05C1143.87 1363 1145.14 1354.95 1146.48 1346.93M789.454 1224.58L788.145 1224.93C740.594 1237.56 693.114 1250.57 645.417 1262.65C621.813 1268.63 598.097 1274.17 574.464 1280.03L570.638 1280.99C551.994 1285.7 533.126 1291.37 518.849 1304.89C518.322 1305.39 517.557 1304.63 518.053 1304.1C533.44 1287.72 555.324 1280.78 576.336 1274.77C580.22 1273.66 584.109 1272.58 587.994 1271.47C559.418 1261.29 530.391 1252.42 500.694 1246.1C493.047 1244.47 485.311 1243.28 477.67 1241.64C472.341 1240.5 467.137 1238.86 461.864 1237.49L457.717 1236.45L457.662 1249.55C457.593 1268.12 457.626 1286.67 458.573 1305.23L458.752 1308.67C459.857 1329.33 461.582 1350.41 468.913 1369.89C474.87 1385.72 484.365 1400.63 496.782 1412.16C503.065 1417.99 509.82 1422.53 518.17 1424.77C525.923 1426.86 534.046 1427.1 542.016 1426.54C580.245 1423.88 614.275 1403.11 647.483 1385.92C701.8 1357.79 756.123 1329.68 810.495 1301.67C809.025 1300.66 807.641 1299.51 806.382 1298.21C799.091 1290.68 795.245 1280.37 792.719 1270.38C790.03 1259.76 788.422 1248.37 788.235 1237.4M858.637 1312.53C859.117 1312.27 859.673 1312.59 859.695 1313.13C859.863 1317.29 857.568 1321.38 855.853 1325.12L855.672 1325.52C853.589 1330.16 851.308 1334.73 848.949 1339.23C844.234 1348.22 839.334 1357.11 834.22 1365.88C823.936 1383.52 812.508 1400.42 799 1415.78C795.949 1419.25 790.931 1414.8 792.889 1411.07C802.329 1393.06 813.334 1376.05 824.662 1359.2C830.333 1350.76 836 1342.31 841.727 1333.91C844.116 1330.4 846.536 1326.91 849.021 1323.47L850.52 1321.41M1422.59 972.45C1374.87 973.891 1327.21 977.003 1279.72 981.88C1235.56 986.415 1191.55 992.452 1147.8 999.978C1138.66 1001.55 1129.53 1003.19 1120.41 1004.89L1114.95 1005.91C1105.83 1007.64 1094.69 1008.36 1086.57 1013.23C1078.01 1018.36 1075.7 1029.09 1072.85 1037.94C1069.5 1048.35 1066.24 1058.79 1063.06 1069.25C1050.46 1110.8 1038.94 1152.7 1028.67 1194.88C1023.57 1215.82 1019.04 1236.87 1014.27 1257.88C1010.04 1276.55 1005.36 1295.01 1000.48 1313.49C1001.08 1313.03 1001.82 1312.67 1002.71 1312.48C1026.96 1307.32 1051.71 1305.08 1076.32 1302.23L1078.7 1301.95C1104.16 1298.96 1129.62 1295.99 1155.09 1293.12L1323.75 1274.15C1333.7 1273.04 1344.36 1272.88 1354.04 1270.22C1370.49 1265.68 1374.35 1247.28 1377.11 1232.62L1377.2 1232.18C1385.52 1187.91 1392.15 1143.25 1399.91 1098.86M1004.4 1262.03C997.857 1261.6 988.895 1255.6 983.927 1256.03C986.535 1260.41 987.712 1265.4 986.209 1270.73C982.026 1285.56 963.109 1277.88 953.997 1273.35C946.526 1269.64 939.312 1265.09 931.041 1263.35C921.671 1261.38 915.323 1265.1 907.407 1269.4C900.905 1272.93 893.824 1275.46 886.542 1276.77C882.67 1277.47 878.992 1277.54 875.321 1277.27C875.1 1277.45 874.851 1277.62 874.567 1277.77L872.625 1278.78C881.406 1279.19 890.35 1281.9 898.522 1284.38C906.99 1286.95 915.303 1290.05 923.572 1293.21L931.706 1296.34C951.772 1304.02 972.542 1311.32 994.258 1311.26C995.819 1311.25 997.098 1311.68 998.105 1312.39M967.769 1215.55C974.238 1214.76 980.209 1215.61 985.378 1219.82C991.612 1224.9 995.8 1233.32 1004.76 1233.88C1007.38 1234.04 1007.98 1237.71 1005.39 1238.48C998.714 1240.45 993.313 1236.84 988.768 1232.16L985.712 1228.97C981.221 1224.32 977.078 1220.72 969.457 1221C961.295 1221.3 953.119 1223.18 945.01 1224.14C935.824 1225.23 926.64 1226.15 917.425 1226.95C916.997 1226.99 916.924 1226.31 917.325 1226.22L927.646 1223.65M961.525 1189.11L962.592 1189C971.985 1188.09 980.576 1188.05 988.966 1193.11L990.575 1194.08C998.139 1198.68 1006.37 1204.09 1011.1 1211.54C1011.88 1212.76 1010.6 1214.19 1009.3 1213.88C1000.21 1211.7 993.565 1205.03 985.92 1200.04C977.34 1194.43 968.477 1195.36 958.694 1196.23C949.222 1197.07 939.755 1198.23 930.376 1199.81C921.563 1201.29 912.722 1203.63 903.82 1204.38L903.822 1204.36C902.805 1204.36 902.225 1202.83 903.262 1202.31C912.296 1197.8 922.759 1195.66 932.586 1193.6M1246.89 1096.26C1245.98 1091.92 1251.32 1089.91 1253.8 1093.35L1254.33 1094.08C1259.68 1101.41 1267.41 1110.6 1267.02 1119.92C1271.72 1120.03 1276.59 1122.88 1278.43 1127.13C1279.27 1129.09 1279.56 1131.41 1279.37 1133.82C1283.65 1134.15 1288.31 1136.96 1290.92 1139.69C1295.25 1144.22 1295.59 1150.62 1292.49 1155.91C1285.71 1167.45 1270.91 1171.65 1258.42 1172.58L1257.98 1172.61C1245.07 1173.51 1226.48 1173.27 1217.63 1162.19C1209.09 1151.52 1218.53 1142.87 1228.2 1138.17C1225.68 1135.88 1224.38 1132.58 1225.6 1129.1C1227.76 1122.99 1235.36 1120.63 1239.65 1116.38C1244.89 1111.2 1248.35 1104.1 1246.97 1096.67M1253.98 1105.65C1252.56 1111.84 1249.06 1117.49 1244.19 1121.98C1242.33 1123.69 1240.29 1125.22 1238.13 1126.53L1237.87 1126.68C1235.95 1127.76 1231.23 1129.78 1231.59 1132.2C1231.97 1134.68 1239.66 1138.57 1241.75 1138.57C1242.23 1138.57 1242.5 1139.32 1242.01 1139.54C1238.21 1141.21 1234.9 1141.93 1231.18 1140.16C1228.7 1142.69 1226.29 1145.32 1223.9 1147.91C1219.68 1152.51 1221.12 1157.37 1226.11 1160.79C1234.13 1166.3 1246.32 1166.16 1255.67 1165.76C1265.09 1165.36 1275.15 1163.26 1282.51 1156.99L1282.83 1156.71C1286.83 1153.15 1290.48 1147.13 1284.36 1143.71C1281.96 1142.36 1279.37 1142.44 1277.09 1141.79C1274.96 1145.97 1271.51 1149.31 1267.29 1149.96C1263.89 1150.48 1261.54 1146.19 1264.64 1144.15L1265.33 1143.71C1269.23 1141.23 1272.55 1137.4 1272.46 1132.42C1272.4 1128.96 1267.57 1124.59 1264.42 1127.84L1264.28 1128C1261.65 1130.97 1257.01 1127.23 1258.74 1123.94L1258.82 1123.79M639.862 933.676C639.851 932.933 640.896 932.655 641.261 933.298C647.373 944.051 650.568 957.232 653.824 969.079C657.234 981.489 659.986 994.025 662.459 1006.65C667.468 1032.22 670.137 1057.65 670.319 1083.71C670.343 1087.43 664.281 1088.42 663.688 1084.61C659.751 1059.26 655.979 1033.88 652.012 1008.54C650.016 995.789 647.694 983.091 645.47 970.382M700.371 952.405C699.921 950.922 702.079 950.426 702.631 951.782C714.897 981.891 719.051 1016.01 711.176 1047.78C709.971 1052.64 702.854 1050.53 703.763 1045.73M858.588 925.651C858.526 924.541 859.967 924.366 860.51 925.13C866.322 933.319 868.733 944.286 878.93 948.518C884.021 950.631 889.75 950.263 894.248 953.832C897.255 956.219 899.561 959.987 897.304 963.602C896.576 964.77 894.538 965.355 893.55 964.086C892.108 962.237 891.345 960.023 889.386 958.637C886.623 956.682 882.897 956.561 879.729 955.642C875.631 954.454 872.019 952.375 869.061 949.286M955.686 789.067C956.285 788.762 956.86 788.957 957.243 789.475C957.79 790.213 957.723 790.931 957.053 791.437C957.948 793.266 959.005 797.848 959.156 798.515C959.768 801.219 960.419 803.907 961.1 806.593C962.474 812.01 963.678 817.469 965.053 822.888C966.511 828.632 968.248 834.315 970.181 839.916C970.306 840.279 970.443 840.649 970.587 841.025L970.807 841.592L970.861 841.506C971.254 840.885 972.072 841.319 971.975 841.975C971.885 842.573 971.764 843.168 971.662 843.766L971.865 844.302C973.129 847.705 973.995 851.289 971.675 854.292C970.807 855.415 969.852 856.08 968.662 856.278C966.754 862.568 964.36 868.741 961.797 874.669L961.046 876.401C957.276 885.051 953.255 893.587 947.252 900.951C940.698 908.991 931.683 914.481 925.974 923.291C923.318 927.389 921.47 931.698 919.97 936.326L919.406 938.083C918.341 941.356 917.113 944.529 914.042 946.449C913.062 947.061 911.594 946.866 910.804 946.031C904.507 939.37 911.099 926.932 914.896 920.483C920.174 911.515 927.813 905.778 935.462 899.012C943.707 891.719 948.966 881.963 954.053 872.352C957.169 866.464 960.177 860.449 963.344 854.535C960.035 851.611 958.976 845.802 957.855 841.764L957.753 841.402C955.9 834.936 954.428 828.302 953.498 821.639C952.603 815.233 952.23 808.918 952.467 802.476L952.535 800.835M967.988 819.559C967.257 818.557 968.467 817.422 969.47 817.631C975.569 818.892 981.531 822.583 987.004 825.568L987.588 825.885C991.957 828.241 996.353 831.127 998.647 835.704C1001.14 840.679 1000.94 846.408 1000.6 851.814L1000.56 852.32C1000.15 858.803 1000.08 865.539 998.708 871.905C998.006 875.163 995.055 876.081 992.532 875.311C989.53 884.79 981.097 891.774 974.937 899.254C967.083 908.79 968.561 921.665 969.382 933.15C969.714 937.8 963.93 939.122 960.951 936.641L954.086 930.939C952.943 929.987 951.801 929.033 950.662 928.076C949.687 927.255 948.721 926.429 947.762 925.591L946.33 924.327C945.695 923.759 942.894 920.63 942.075 920.5C940.092 920.185 935.379 925.413 933.766 927.053L933.561 927.257C930.525 930.234 927.782 933.437 925.227 936.834C924.757 937.458 923.838 936.94 924.174 936.219C926.464 931.315 929.126 926.626 932.287 922.238L932.925 921.364C935.028 918.53 937.851 913.526 941.563 912.689C946.096 911.668 950.622 916.213 953.92 918.736L954.128 918.894C955.697 920.071 957.248 921.269 958.796 922.475C958.634 913.924 959.714 905.284 964.129 897.915C967.242 892.718 971.906 888.869 975.897 884.403C980.34 879.43 982.66 873.318 986.682 868.139C987.2 867.473 987.914 867.114 988.687 867C988.842 862.836 989.455 858.632 989.929 854.513L990.066 853.28C990.545 848.805 991.677 843.339 989.486 839.148C987.417 835.19 982.668 832.395 979.152 829.71L976.28 827.482M770.074 772.241C768.238 773.303 766.522 774.624 764.965 776.275C760.064 781.474 756.56 787.944 753.15 794.168C751.314 797.52 749.544 800.909 747.693 804.253C746.888 805.708 746.06 807.147 745.223 808.584C744.836 809.246 743.686 810.562 743.116 811.373C743.749 812.26 744.404 813.134 745.072 813.998C745.327 814.328 762.908 833.48 769.036 840.975C778.42 852.456 786.808 864.583 793.979 877.563C801.001 890.274 806.347 903.732 812.852 916.689C816.108 923.176 819.744 929.617 824.379 935.231C824.558 935.45 824.747 935.657 824.93 935.873C826.699 931.094 831.232 925.977 833.458 923.039L833.666 922.762C838.715 915.956 844.047 909.355 849.495 902.866C854.471 896.941 859.573 891.143 864.799 885.442L866.765 883.308C870.406 879.375 875.031 873.49 880.361 870.68C879.79 869.662 879.129 868.655 878.369 867.661C873.375 861.135 866.315 856.399 859.35 852.126L854.832 849.378C837.804 839.001 821.042 828.143 806.259 814.661C798.438 807.527 790.725 800.054 784.151 791.733L781.826 788.791M798.486 767.104C790.512 767.773 781.901 767.614 774.532 770.212C781.083 776.405 787.31 783.092 793.707 789.389C794.276 785.13 795.44 780.923 796.426 776.77" fill="black"/>
<path fill-rule="evenodd" clip-rule="evenodd" d="M1106.87 563.553C1097.72 513.654 1075.16 466.175 1040.5 429.026C1036.5 424.615 1032.91 417.657 1026.81 416.545C1020.68 404.064 1009.01 395.241 999.676 385.162C979.305 364.851 959.815 342.154 933.54 329.328C811.671 279.206 694.394 422.122 669.507 529.603C644.788 616.04 671.786 735.278 778.908 738.776C794.063 758.82 814.975 772.694 836.456 785.085C865.791 803.867 897.791 811.491 931.729 801.039C965.528 809.871 1000.57 781.529 1020.88 756.673C1036.93 737.42 1047.94 713.923 1062.62 693.994C1079.96 693.561 1094.94 678.881 1097.26 661.674C1113.45 631.917 1112.72 596.259 1106.87 563.553V563.553Z" fill="#D08B5B"/>
<path fill-rule="evenodd" clip-rule="evenodd" d="M669.507 529.603C694.394 422.122 811.671 279.206 933.54 329.328C959.815 342.154 979.305 364.851 999.676 385.162C1009.01 395.241 1020.68 404.064 1026.81 416.545C1032.91 417.657 1036.5 424.615 1040.5 429.026C1075.16 466.175 1097.72 513.654 1106.87 563.553C1112.72 596.259 1113.45 631.917 1097.26 661.674C1094.94 678.881 1079.96 693.561 1062.62 693.994C1059.44 698.306 1056.44 702.786 1053.52 707.353L1052.83 707.587L1052.74 702.529C1051.28 620.569 1046.56 571.094 1038.58 554.104C1030.52 536.941 995.84 505.516 934.532 459.828L932.666 458.44L918.275 446.555L907.107 459.164C865.09 506.56 832.2 543.133 808.437 568.883C782.866 596.593 761.232 638.748 743.534 695.349L742.999 697.069L774.268 738.549C671.009 731.803 645.149 614.778 669.507 529.603Z" fill="#9DDADB"/>
<path fill-rule="evenodd" clip-rule="evenodd" d="M841.415 312.346C863.59 307.165 886.845 308.239 908.81 313.933C952.345 325.22 988.166 354.571 1017.87 387.296C1046.84 419.216 1070.73 455.808 1088.18 495.227L1089.06 497.232C1101.4 525.332 1112.13 554.538 1112.59 585.479C1112.99 612.108 1110.3 639.85 1101.69 665.178C1094.03 687.741 1079.93 710.477 1055.68 715.886C1041.69 751.434 1014.33 782.218 979.869 798.69C958.493 808.907 935.018 813.468 911.384 811.2C887.271 808.888 864.748 797.302 845.903 782.527C845.386 782.122 846.051 781.337 846.584 781.643C869.273 794.718 896.107 799.392 922.095 798.532C964.803 797.12 1003.96 774.069 1026.45 737.836C1032.05 728.818 1037.04 719.306 1041.02 709.411C1040.79 708.597 1040.65 707.772 1040.65 706.968C1040.65 703.559 1042.27 700.954 1044.68 699.271C1045.8 695.774 1046.79 692.237 1047.62 688.66C1049.49 680.558 1050.54 672.339 1051.17 664.054C1051.68 657.323 1051.4 650.182 1052.08 643.279C1051.83 637.748 1051.49 632.222 1050.99 626.708C1049.37 608.94 1046.11 591.216 1039.83 574.47C1033.46 557.508 1023.41 542.55 1010.73 529.675C983.527 502.061 949.66 481.899 923.208 453.531L921.823 452.031L921.729 452.001C918.447 455.366 915.167 458.731 911.878 462.089L896.852 477.416C866.182 508.732 835.761 540.352 809.08 575.2C793.717 595.267 779.914 616.302 768.021 638.608C762.389 649.172 757.283 660 752.667 671.046L750.851 675.443C748.689 680.706 746.354 686.596 745.056 692.539C748.916 696.368 751.739 701.995 754.861 706.341C758.402 711.27 762.486 715.962 766.688 720.341C770.941 724.774 775.606 729.023 780.558 732.664L781.153 733.093C786.835 737.125 793.357 739.91 794.209 747.586C794.579 750.919 791.599 753.6 788.84 754.638C781.287 757.475 773.463 749.325 768.429 744.637C765.29 741.713 762.404 738.562 759.728 735.235C757.123 735.608 754.501 735.795 751.906 735.487C747.885 735.009 743.903 734.306 739.986 733.276C707.498 724.746 683.451 697.776 670.477 667.739C653.059 627.413 653.464 580.928 660.705 538.284C673.936 460.354 716.758 387.576 781.419 341.501C799.528 328.597 819.609 317.44 841.415 312.346ZM876.418 322.771C834.646 320.57 796.562 342.11 766.007 368.923C710.373 417.743 676.105 489.223 669.211 562.626C665.548 601.626 668.289 643.663 688.625 678.12C696.515 691.489 706.677 703.138 718.672 712.96C729.975 722.217 742.859 727.552 756.633 731.182C756.006 730.318 755.387 729.448 754.785 728.565C751.581 723.874 749.036 718.888 746.904 713.664C746.716 713.852 746.362 713.89 746.153 713.603C737.459 701.674 740.18 687.44 744.324 674.322C748.669 660.563 754.176 647.175 760.461 634.188C783.37 586.86 817.444 545.629 852.814 507.154C870.878 487.505 889.541 468.425 908.135 449.28C917.421 439.72 926.682 430.132 935.826 420.434C940.377 415.606 944.9 410.753 949.382 405.861C953.814 401.024 957.802 395.901 963.32 392.278C967.719 389.391 972.11 394.909 970.054 399.013C966.892 405.325 961.454 410.329 956.642 415.462L956.146 415.994C951.455 421.058 946.72 426.081 941.957 431.077C936.479 436.823 930.958 442.53 925.42 448.222C930.143 447.675 934.922 447.36 939.617 446.647C945.993 445.679 952.283 444.253 958.541 442.702C965.136 441.069 971.646 438.984 977.929 436.392C983.832 433.958 989.411 430.058 995.906 429.676C1001.4 429.352 1003.12 436.159 1000.08 439.741C995.877 444.677 988.33 446.62 982.192 448.452L981.325 448.714C974.536 450.786 967.589 452.341 960.567 453.38C951.328 454.748 940.65 455.374 930.765 453.974C950.505 465.548 968.67 479.892 986.783 493.88L989.979 496.345C1007.68 509.961 1024.95 524.639 1037.57 543.268C1049.34 560.659 1056.46 580.906 1060.45 601.421C1062.42 611.542 1063.72 621.77 1064.59 632.041C1067.84 641.147 1067.31 651.974 1066.5 661.989L1066.2 665.446L1066.23 666.46C1066.35 672.724 1068.87 686.671 1062.94 691.401C1062.84 691.905 1062.74 692.412 1062.64 692.916C1063.37 692.46 1064.1 691.991 1064.83 691.509C1065.12 691.31 1065.41 691.091 1065.7 690.876L1066.52 690.203C1066.55 690.177 1066.58 690.154 1066.6 690.135C1068.44 688.52 1070.2 686.834 1071.83 685.011C1074.86 681.642 1077.73 677.361 1080.45 672.429C1086.43 661.589 1090.25 649.805 1093.21 637.621C1098.61 615.346 1100.84 591.421 1098.38 568.577C1098.03 565.388 1097.33 561.39 1096.23 557.288C1093.63 547.548 1090.64 537.911 1087.29 528.404C1080.59 509.385 1072.38 490.934 1062.8 473.19C1043.36 437.15 1018.34 403.83 988.36 375.869C958.001 347.552 918.63 324.995 876.418 322.771ZM817.51 437.921C819.016 437.001 820.566 438.788 819.819 440.23C816.202 447.209 810.12 453.101 805.068 459.081C799.837 465.273 794.644 471.499 789.464 477.734C778.916 490.429 768.621 503.357 758.732 516.573L756.121 520.069C747.427 531.739 738.839 543.595 731.239 555.995C727.263 562.482 723.759 569.191 720.577 576.1C717.548 582.677 716.151 590.616 712.511 596.794C712.282 597.184 711.572 597.152 711.484 596.659C710.296 590.007 713.231 581.995 715.328 575.766C717.821 568.358 721.369 561.302 725.167 554.487C733.089 540.271 742.581 526.946 752.117 513.782C761.802 500.415 771.857 487.321 782.406 474.623C787.361 468.658 792.427 462.813 797.644 457.083L799.608 454.94C805.073 449.012 810.581 442.151 817.51 437.921ZM792.185 417.254C794.662 415.419 796.776 419.169 795.196 421.157C785.757 433.031 775.017 443.7 764.687 454.774C754.767 465.409 745.285 476.442 736.338 487.909C718.095 511.292 703.492 536.95 691.124 563.841C690.891 564.348 690.157 563.97 690.267 563.48C696.818 534.393 712.134 507.975 729.573 484.106L730.236 483.201C747.875 459.198 768.151 435.069 792.185 417.254Z" fill="black"/>
<path fill-rule="evenodd" clip-rule="evenodd" d="M915.587 753.927C908.864 751.184 902.866 746.61 898.481 740.766C896.957 738.735 896.561 736.59 896.881 734.628C897.241 732.421 898.546 730.422 900.326 729.081C902.112 727.735 904.345 727.072 906.504 727.41C908.381 727.704 910.248 728.731 911.727 730.862L912.035 731.288C914.642 734.815 918.04 737.709 921.91 739.574C925.641 741.372 929.814 742.211 934.132 741.723C942.356 740.794 948.024 736.346 954.049 730.307C954.796 729.544 955.543 728.758 956.294 727.959C956.768 727.234 957.426 726.769 958.157 726.524C958.968 726.253 959.886 726.269 960.726 726.562C961.537 726.845 962.262 727.381 962.747 728.095C963.209 728.773 963.471 729.61 963.386 730.574C962.835 736.833 959.562 742.419 954.914 746.805C949.752 751.677 942.909 755.047 936.466 756.229C929.368 757.531 922.136 756.598 915.587 753.927V753.927ZM939.814 657.367C947.366 661.957 958.872 672.66 950.748 684.04C941.186 694.073 927.418 682.569 920.634 677.366C914.343 673.334 907.275 683.704 913.112 688.413C962.136 724.708 982.031 658.567 943.634 651.97C939.406 651.243 937.836 655.947 939.814 657.367ZM851.963 615.146C852.798 604.79 868.57 602.438 870.139 612.686C871.544 621.866 869.89 630.299 865.755 638.564C861.804 646.46 851.874 642.777 851.123 635.587C850.116 625.949 851.444 621.589 851.963 615.146ZM972.027 610.561C974.226 607.681 977.401 605.715 981.205 606.826C993.09 610.299 989.587 627.172 985.413 635.385C983.145 639.845 975.814 640.976 972.501 637.049C967.101 630.645 964.515 617.856 971.38 611.548C971.566 611.222 971.773 610.893 972.027 610.561ZM865.588 569.83L867.465 569.502C873.273 568.497 880.494 567.532 884.603 572.201C886.782 574.677 887.532 579.279 884.603 581.649C879.451 585.819 873.755 584.203 867.581 584.556C862.493 584.848 857.603 585.69 852.702 587.091C841.95 590.164 833.189 595.774 824.006 601.934C822.801 602.742 821.571 601.201 822.146 600.074C827.447 589.691 837.72 581.162 848.01 575.963C853.502 573.188 859.512 570.886 865.588 569.83ZM961.193 565.179L962.63 565.473C978.267 568.742 998.583 575.271 1005.99 590.631C1006.27 592.803 1005.97 593.268 1005.73 593.572L1005.65 593.673C1005.45 593.933 1005.29 594.291 1004.35 594.587C1004.09 594.525 1003.82 594.459 1003.56 594.389C1000.16 593.499 997.477 592.274 994.877 591.002L992.058 589.613C988.788 588.01 985.488 586.465 981.992 585.324C974.53 582.89 966.854 581.175 959.06 580.26C957.37 580.061 955.744 579.491 954.46 578.514C953.242 577.587 952.311 576.302 951.887 574.595C951.337 572.386 951.495 570.714 952.68 568.721C953.572 567.224 954.847 566.187 956.311 565.591C957.804 564.984 959.503 564.841 961.193 565.179Z" fill="black"/>
</svg>
